<svg width="12" height="15" viewBox="0 0 12 15" fill="currentColor" xmlns="http://www.w3.org/2000/svg">
<path d="M11.25 14.5H10.0833V11.5582C10.0829 11.1009 9.90099 10.6624 9.57761 10.339C9.25422 10.0156 8.81575 9.83376 8.35842 9.83329H3.64158C3.18425 9.83376 2.74578 10.0156 2.42239 10.339C2.09901 10.6624 1.91713 11.1009 1.91667 11.5582V14.5H0.75V11.5582C0.750926 10.7916 1.05587 10.0567 1.59795 9.51457C2.14002 8.9725 2.87497 8.66755 3.64158 8.66663H8.35842C9.12503 8.66755 9.85998 8.9725 10.4021 9.51457C10.9441 10.0567 11.2491 10.7916 11.25 11.5582V14.5Z" fill="currentColor"/>
<path d="M6 7.5C5.30777 7.5 4.63108 7.29473 4.05551 6.91015C3.47993 6.52556 3.03133 5.97894 2.76642 5.33939C2.50152 4.69985 2.4322 3.99612 2.56725 3.31719C2.7023 2.63825 3.03564 2.01461 3.52513 1.52513C4.01461 1.03564 4.63825 0.702301 5.31719 0.567253C5.99612 0.432205 6.69985 0.501517 7.33939 0.766423C7.97893 1.03133 8.52556 1.47993 8.91014 2.05551C9.29473 2.63108 9.5 3.30777 9.5 4C9.49907 4.92798 9.13003 5.81768 8.47385 6.47385C7.81768 7.13003 6.92797 7.49908 6 7.5ZM6 1.66667C5.53851 1.66667 5.08739 1.80352 4.70367 2.05991C4.31996 2.3163 4.02089 2.68071 3.84428 3.10707C3.66768 3.53343 3.62147 4.00259 3.7115 4.45521C3.80153 4.90784 4.02376 5.3236 4.35009 5.64992C4.67641 5.97624 5.09217 6.19847 5.54479 6.2885C5.99741 6.37853 6.46657 6.33233 6.89293 6.15572C7.31929 5.97912 7.68371 5.68005 7.9401 5.29633C8.19649 4.91262 8.33333 4.46149 8.33333 4C8.33333 3.38116 8.0875 2.78767 7.64992 2.35009C7.21233 1.9125 6.61884 1.66667 6 1.66667Z" fill="currentColor"/>
</svg>
